<svg width="139" height="17" fill="none" xmlns="http://www.w3.org/2000/svg"><path d="M32.19 6.167H20.537l-.418.328v10.17h3.206v-3.828l.294-.285h8.57c2.168 0 3.165-.574 3.165-2.045V8.168c0-1.43-.997-2.001-3.164-2.001zm0 3.758c0 .695-.459.808-1.5.808h-7.016l-.335-.286V8.292l.294-.285h7.079c1 0 1.5.12 1.5.808v1.102l-.022.008zm9.087-1.838l2.791 4.004-.168.369h-6.164l-1.582 1.918h9.164l.665.37 1.417 1.917h3.706l-8.12-10.62m35.068 8.578v-2.858l.335-.286h6.206V9.682h-9.829v6.983H89.26v-1.797H78.431M89.386 6.17h-14.62v1.96h14.62V6.17zM58.482 8.047h11.787c-.168-1.47-1.126-1.886-3.458-1.886h-8.456c-2.664 0-3.5.49-3.5 2.492v5.56c0 1.962.825 2.493 3.5 2.493h8.447c2.374 0 3.297-.45 3.374-1.962H58.473l-.335-.325V8.291M12.205 10.25H3.667l-.25-.285V8.168l.25-.204h11.538l.165-.367c-.374-.98-1.415-1.47-3.297-1.47H4.041c-2.665 0-3.497.49-3.497 2.491v1.186c0 1.958.824 2.492 3.497 2.492h8.54l.25.245v1.886l-.208.285H.293S0 14.876 0 14.917c.209 1.39 1.167 1.756 3.459 1.756h8.746c2.665 0 3.541-.49 3.541-2.492v-1.438c0-1.959-.876-2.492-3.54-2.492zm86.386-4.124h-4.832l-.25.49 5.332 3.84c1-.572 2.123-1.143 3.296-1.717m.786 4.578l4.706 3.348h4.832l.209-.45-6.997-5.024c-.918.695-1.876 1.39-2.747 2.126" fill="#fff"/><path d="M97.882 16.665H93.51l-.374-.57C96.091 13.273 109.343 1.276 138.118 0c0 0-24.116.808-40.236 16.665z" fill="#B2B0B2"/></svg>